<?xml version="1.0" encoding="UTF-8" standalone="no"?>
<svg
   width="1024"
   height="1024"
   viewBox="0 0 1024 1024"
   version="1.1"
   id="svg7"
   sodipodi:docname="three-curved-lines--abstract-flame-shape--minimali.svg"
   inkscape:version="1.4.3 (0d15f75042, 2025-12-25)"
   xmlns:inkscape="http://www.inkscape.org/namespaces/inkscape"
   xmlns:sodipodi="http://sodipodi.sourceforge.net/DTD/sodipodi-0.dtd"
   xmlns="http://www.w3.org/2000/svg"
   xmlns:svg="http://www.w3.org/2000/svg">
  <defs
     id="defs7" />
  <sodipodi:namedview
     id="namedview7"
     pagecolor="#505050"
     bordercolor="#eeeeee"
     borderopacity="1"
     inkscape:showpageshadow="0"
     inkscape:pageopacity="0"
     inkscape:pagecheckerboard="0"
     inkscape:deskcolor="#505050"
     inkscape:zoom="1.1328125"
     inkscape:cx="512"
     inkscape:cy="512"
     inkscape:window-width="3440"
     inkscape:window-height="1371"
     inkscape:window-x="0"
     inkscape:window-y="0"
     inkscape:window-maximized="1"
     inkscape:current-layer="svg7" />
  <path
     fill="#161516"
     d="M594.149 322.704C587.437 313.557 579.798 303.355 572.218 294.878C550.433 270.518 531.627 252.996 517.087 223.136C492.976 173.623 511.389 119.951 480.746 72.9683C475.145 64.3806 470.447 57.7977 462.697 50.8306C456.14 44.9358 449.751 42.6629 443.057 38.411C460.647 44.1095 475.114 49.8499 491.464 58.8122C535.237 83.2282 570.844 120.003 593.836 164.54C646.913 268.126 616.957 386.553 547.771 473.011C543.169 478.762 537.308 485.102 533.264 491.107C546.882 541.794 543.645 600.914 532.854 651.8C540.692 645.302 548.257 638.38 556.151 631.975C570.023 620.719 583.968 610.349 597.281 598.374C635.104 564.354 663.338 520.521 668.428 468.997C673.284 419.842 653.848 370.475 627.925 329.504L628.278 329.233C630.494 330.527 631.785 332.692 633.419 334.618C696.019 408.378 705.223 503.22 656.477 586.879C641.975 611.241 623.679 633.133 602.28 651.732C589.329 662.969 575.964 672.974 562.993 684.478C507.931 733.312 472.299 804.596 474.975 879.016C475.66 898.065 478.614 908.826 481.74 927.085C482.137 914.513 482.38 903.596 484.432 891.107C493.568 835.47 533.635 788.385 583.225 763.427C607.677 751.12 634.896 746.533 660.227 736.627C730.468 710.281 778.236 646.859 779.577 571.303C781.358 500.611 750.34 435.591 702.561 384.643C690.745 372.019 678.069 360.229 664.622 349.359C654.829 341.475 644.518 334.145 634.622 326.308C712.848 363.248 777.906 425.211 807.481 507.713C833.69 581.878 829.888 663.347 796.885 734.749C765.346 801.3 712.418 849.948 645.161 878.905C627.8 886.38 610.022 892.36 592.467 899.323C553.29 914.861 518.61 942.222 495.656 977.931C467.31 918.903 460.83 857.525 482.809 795.152C496.718 756.019 519.249 720.514 548.735 691.266C566.132 673.804 583.5 662.1 601.331 646.13C645.912 606.203 675.468 556.036 681.653 495.811C685.368 459.64 678.518 424.521 663.96 391.21C663.615 390.42 663.212 389.758 662.765 389.027C662.775 388.814 669.298 411.184 669.871 413.794C677.777 449.297 674.485 486.378 660.446 519.932C636.237 577.589 596.688 605.437 550.702 642.742C477.707 701.957 433.718 798.065 448.849 892.211C452.992 920.42 458.531 934.435 465.611 960.58C458.938 949.264 452.939 932.366 449.647 919.756C438.369 876.557 438.405 831.181 449.752 788C454.926 768.38 462.397 749.439 472.01 731.57C467.482 721.251 462.562 709.403 457.083 699.673C442.917 674.518 421.008 655.339 401.65 634.193C365.399 688.473 347.148 749.149 360.186 814.355C368.486 854.637 388.672 891.505 418.137 920.198C428.107 929.996 438.941 938.655 449.864 947.351C454.438 950.993 459.031 955.239 463.537 958.699C409.27 931.389 364.787 882.296 345.516 824.511C325.35 764.046 333.807 697.822 362.561 641.678C368.74 629.614 374.482 619.95 381.517 608.397C361.243 585.962 349.892 546.869 345.953 517.194C330.647 531.309 315.149 545.262 301.428 560.917C262.073 605.818 241.676 654.994 239.258 714.428C237.09 776.516 259.581 836.938 301.817 882.497C338.371 921.756 384.41 950.951 435.508 967.274C441.414 969.212 457.956 974.525 463.52 975.279C460.887 976.35 457.709 974.778 454.978 974.411C351.476 960.494 257.38 899.432 217.321 800.323C192.505 738.599 192.868 669.607 218.334 608.148C230.998 578.343 248.601 552.303 270.59 528.58C307.391 488.877 352.442 461.514 378.302 412.317C401.205 368.747 408.132 321.089 376.07 279.576C377.5 278.094 376.681 278.42 378.469 278.258C379.498 278.796 380.062 279.098 381.159 279.493L381.941 279.77C385.667 281.912 393.916 290.028 397.177 293.182C414.325 309.763 428.253 327.532 441.755 347.124C447.584 355.582 453.681 365.197 459.598 373.409C455.657 363.541 452.511 353.426 451.088 343.006C442.705 281.612 471.939 217.631 436.475 160.467C423.426 139.432 404.685 121.594 383.7 108.189C427.256 124.747 457.039 155.125 479.385 195.53C490.231 215.141 499.81 236.552 513.325 254.558C528.287 274.492 546.046 293.133 562.147 312.184C571.286 322.934 579.78 334.216 587.584 345.972C589.925 338.136 592.166 330.638 594.149 322.704ZM495.561 967.615C496.971 967.257 505.466 955.621 507.543 953.281C520.348 938.955 534.914 926.307 550.894 915.639C578.846 896.957 601.114 891.07 631.751 879.191C693.009 855.53 745.571 814.681 779.168 757.816C802.254 718.74 815.49 677.164 818.798 631.85C819.1 627.703 820.823 610.479 819.638 607.323C817.392 619.253 815.307 629.974 811.73 641.561C798.407 685.565 770.399 723.671 732.378 749.523C714.111 762.028 689.113 773.742 667.939 780.163C647.793 786.272 629.021 790.536 609.055 798.059C576.197 810.408 547.532 831.853 526.41 859.888C511.667 879.764 501.309 900.845 496.546 925.28C494.405 936.265 492.628 956.89 495.561 967.615ZM350.195 507.703C351.429 543.972 363.894 574.9 383.999 604.586C390.339 595.774 397.064 587.203 403.514 578.462C378.958 539.51 375.5 502.659 390.125 458.751C396.503 439.602 404.417 422.24 408.452 402.29C413.535 377.154 412.862 358.891 407.384 334.012C403.384 320.77 397.879 304.732 389.73 293.608C402.333 319.708 403.88 332.666 401.317 361.613C399.991 366.304 399.53 371.661 398.243 376.317C386.111 420.629 355.881 457.814 321.317 487.048C265.569 534.198 221.872 584.952 208.321 658.687C196.078 723.555 210.044 790.63 247.159 845.221C277.226 888.642 310.477 917.465 358.215 940.541C363.014 942.861 380.966 951.315 385.463 952.128C385.141 951.435 357.222 936.027 352.896 933.174C327.428 916.197 304.759 895.358 285.704 871.405C238.072 812.303 222.828 730.813 242.567 657.965C255.813 609.083 285.064 567.141 321.998 533.044C331.352 524.408 340.251 515.685 350.195 507.703ZM489.063 948.302C489.609 940.97 491.167 926.928 492.937 919.887C504.489 871.573 533.277 836.231 574.556 809.572C604.086 790.502 637.365 784.723 670.295 774.297C740.074 751.577 792.778 700.671 810.254 628.336C813.902 613.235 817.787 591.09 817.005 575.29C815.002 534.79 798.599 491.27 777.357 457.018C757.364 424.78 734.509 399.686 705.035 376.002C701.716 373.336 690.449 364.23 687.216 362.457L687.864 363.236C690.187 365.977 696.839 371.548 699.838 374.49C707.733 382.31 715.25 390.503 722.366 399.039C820.688 518.897 807.097 697.998 644.531 746.997C630.438 751.245 615.052 755.568 601.381 760.885C566.38 774.179 536.276 797.851 515.101 828.729C498.799 852.907 489.165 880.958 487.171 910.051C486.356 922.832 486.99 935.664 489.063 948.302ZM521.476 456.292C532.129 445.364 540.591 433.926 549.384 421.471C563.225 400.34 578.155 375.823 585.419 351.371C580.578 342.65 575.809 336.855 569.948 328.982C551.45 304.135 528.412 282.952 510.353 257.81C502.898 247.236 496.029 236.261 489.778 224.934C481.172 209.451 473.808 192.36 463.937 177.657C459.931 171.69 447.377 154.232 441.657 150.852C470.986 195.474 475.573 230.347 470.79 282.889C468.787 304.896 469.658 325.705 473.805 347.453C481.5 387.812 506.113 419.533 521.476 456.292ZM406.391 574.943C416.557 563.702 426.213 552.874 437.014 542.165C448.278 531.191 459.697 520.378 471.27 509.73C480.944 500.822 492.374 490.748 500.908 480.743C484.163 426.082 455.665 369.708 419.264 325.371C415.692 321.02 406.91 309.855 402.655 306.771C425.546 356.515 418.378 396.023 400.242 444.945C393.132 464.123 386.471 481.35 386.039 502.142C385.445 530.642 392.944 550.874 406.391 574.943ZM518.059 460.539C513.623 448.349 505.242 433.437 499.024 421.95C485.526 397.014 474.628 374.334 468.996 346.455C462.184 312.736 467.388 282.345 467.97 248.712C468.303 229.473 463.862 205.158 456.789 187.384C451.944 173.441 438.242 151.151 427.767 140.811L427.734 141.123L427.048 140.332C441.881 160.022 448.692 168.774 454.946 194.064C466.396 246.092 447.639 293.786 456.451 345.35C462.639 381.565 486.669 414.332 501.769 447.306C505.036 454.44 508.248 461.665 511.565 468.794C513.645 465.977 515.811 463.224 518.059 460.539ZM521.343 504.044C528.769 540.152 530.397 585.819 527.832 622.171C527.255 630.457 526.36 638.717 525.15 646.934C524.738 649.855 523.038 659.35 523.133 661.653C523.901 661.494 523.604 661.667 524.076 661.235C529.249 653.022 530.115 643.521 531.863 633.958C538.594 598.788 539.718 562.774 535.194 527.253C534.635 522.668 531.477 497.825 529.078 495.834L521.343 504.044ZM426.05 601.742C440.773 618.553 464.261 638.658 475.828 655.763C483.823 667.423 491.376 680.431 495.3 694.1C498.045 691.006 512.458 674.211 513.529 671.039C521.446 647.609 521.799 613.221 520.821 588.937C519.944 567.189 516.536 548.114 512.431 527.17C512.11 525.535 510.869 516.541 510.294 515.934C505.013 519.801 491.894 532.873 486.612 538.061C466.764 557.56 443.07 579.802 426.05 601.742ZM524.824 577.504C524.96 574.388 525.232 571.154 524.721 568.091C524.133 561.205 519.361 515.328 516.531 511.228C516.147 517.036 519.395 534.542 520.437 541.02C522.104 551.386 523.099 560.105 524.13 570.638C523.899 572.643 524.496 575.433 524.824 577.504ZM492.272 439.848C494.028 444.924 503.53 472.366 505.618 475.11C506.551 475.296 506.437 475.334 507.371 475.3C508.425 469.98 495.652 443.454 492.272 439.848ZM422.789 605.43C416.546 613.742 410.224 621.59 404.044 630.038C434.978 665.295 456.514 679.74 474.521 725.246C477.9 721.725 486.943 705.757 491.967 699.486C478.393 656.798 453.17 635.863 422.789 605.43ZM595.321 316.883C595.645 314.801 595.883 313.203 596.402 311.169C607.096 247.49 594.959 184.728 557.137 131.746C537.712 104.95 513.674 81.8244 486.147 63.4496C483.388 61.5781 474.09 55.4123 471.287 54.8601C521.152 113.471 492.702 154.973 519.551 217.685C534.3 252.135 571.899 285.937 595.321 316.883ZM523.201 86.4123C650.402 206.275 619.167 368.655 505.108 483.268C479.939 508.559 453.332 531.893 428.534 557.475C378.549 609.506 337.025 684.749 339.172 758.903C340.532 805.954 356.698 851.376 385.368 888.707L385.938 888.77C384.688 886.05 381.112 881.114 379.359 878.271C375.324 871.794 371.788 865.018 368.784 858.003C345.915 804.842 345.169 746.755 365.648 692.802C385.501 640.501 419.113 597.97 458.53 558.931C474.721 542.894 493.117 526.852 508.549 510.876C562.265 455.265 605.555 387.39 613.792 309.027C618.857 260.834 613.368 218.266 592.876 174.052C579.167 144.473 560.875 120.877 537.368 98.4696C534.186 95.4361 526.902 87.9246 523.201 86.4123Z"
     id="path1" />
  <path
     fill="#FBFBFB"
     fill-opacity="0.0078431377"
     d="M523.201 86.4123C526.902 87.9246 534.186 95.4361 537.368 98.4696C560.875 120.877 579.167 144.473 592.876 174.052C613.368 218.266 618.857 260.834 613.792 309.027C605.555 387.39 562.265 455.265 508.549 510.876C493.117 526.852 474.721 542.894 458.53 558.931C419.113 597.97 385.501 640.501 365.648 692.802C345.169 746.755 345.915 804.842 368.784 858.003C371.788 865.018 375.324 871.794 379.359 878.271C381.112 881.114 384.688 886.05 385.938 888.77L385.368 888.707C356.698 851.376 340.532 805.954 339.172 758.903C337.025 684.749 378.549 609.506 428.534 557.475C453.332 531.893 479.939 508.559 505.108 483.268C619.167 368.655 650.402 206.275 523.201 86.4123Z"
     id="path2" />
  <path
     fill="#AEAEAF"
     fill-opacity="0.023529412"
     d="M454.946 194.064C448.692 168.774 441.881 160.022 427.048 140.332L427.734 141.123L427.767 140.811C438.242 151.151 451.944 173.441 456.789 187.384C455.029 190.455 457.819 190.164 454.946 194.064Z"
     id="path4" />
  <path
     fill="#FBFBFB"
     fill-opacity="0.0078431377"
     d="M524.13 570.638C523.099 560.105 522.104 551.386 520.437 541.02C519.395 534.542 516.147 517.036 516.531 511.228C519.361 515.328 524.133 561.205 524.721 568.091L524.13 570.638Z"
     id="path5" />
  <path
     fill="#57525C"
     fill-opacity="0.60000002"
     d="M524.721 568.091C525.232 571.154 524.96 574.388 524.824 577.504C524.496 575.433 523.899 572.643 524.13 570.638L524.721 568.091Z"
     id="path6" />
  <path
     fill="#010102"
     d="M376.07 279.576C375.849 279.429 365.725 268.746 364.903 267.872L365.543 267.521C369.948 270.404 378.211 276.193 381.941 279.77L381.159 279.493C380.062 279.098 379.498 278.796 378.469 278.258C376.681 278.42 377.5 278.094 376.07 279.576Z"
     id="path7" />
</svg>
